<!--?xml version="1.0" standalone="no"?-->
              <svg id="sw-js-blob-svg" viewBox="0 0 100 100" xmlns="http://www.w3.org/2000/svg" version="1.1">
                    <defs> 
                        <linearGradient id="sw-gradient" x1="0" x2="1" y1="1" y2="0">
                            <stop id="stop1" stop-color="rgba(248, 117, 55, 1)" offset="0%"></stop>
                            <stop id="stop2" stop-color="rgba(251, 168, 31, 1)" offset="100%"></stop>
                        </linearGradient>
                    </defs>
                <path fill="url(#sw-gradient)" d="M23.7,-33.4C29.1,-28.7,30.7,-19.6,32.1,-11.3C33.6,-3.1,35,4.4,33,10.8C31,17.3,25.8,22.7,19.7,25.9C13.7,29,6.8,29.9,1.4,28C-4.1,26.1,-8.2,21.5,-11.6,17.5C-15,13.5,-17.7,10.1,-23.4,4.7C-29.2,-0.6,-37.8,-7.9,-38.4,-14.5C-39,-21,-31.5,-27,-23.7,-30.9C-15.9,-34.8,-8,-36.8,0.6,-37.6C9.1,-38.4,18.3,-38.1,23.7,-33.4Z" width="100%" height="100%" transform="translate(50 50)" stroke-width="0" style="transition: all 0.3s ease 0s;"></path>
              </svg>